<svg width="56" height="56" viewBox="0 0 56 56" fill="none" xmlns="http://www.w3.org/2000/svg">
<circle cx="28" cy="28" r="28" fill="#FDC448"/>
<path d="M37.7262 11.6623C37.8236 11.4459 38.1482 11.4459 38.2456 11.6623C39.4357 14.389 41.6104 16.553 44.3369 17.7433C44.5532 17.8407 44.5532 18.1653 44.3369 18.2626C41.6104 19.442 39.4357 21.6169 38.2456 24.3436C38.1482 24.56 37.8236 24.56 37.7262 24.3436C36.5361 21.6169 34.3614 19.4529 31.6349 18.2626C31.4186 18.1653 31.4186 17.8407 31.6349 17.7433C34.3614 16.5639 36.5361 14.389 37.7262 11.6623Z" fill="#02021E"/>
<path d="M43.7957 28.3469C43.7957 37.2736 36.5576 44.5015 27.6425 44.5015C18.7273 44.5015 11.5 37.2736 11.5 28.3469C11.5 19.4202 18.7273 12.2031 27.6425 12.2031V17.4509C21.6269 17.4509 16.7474 22.3309 16.7474 28.3469C16.7474 34.3629 21.6269 39.2429 27.6425 39.2429C33.658 39.2429 38.5375 34.3738 38.5375 28.3469H43.7957Z" fill="#02021E"/>
</svg>
