<svg width="163" height="35" viewBox="0 0 163 35" fill="none" xmlns="http://www.w3.org/2000/svg">
<rect width="34.9493" height="34.9493" rx="17.4747" fill="#02021E"/>
<g clip-path="url(#clip0_37289_34258)">
<path d="M23.63 6.82046C23.691 6.68485 23.8944 6.68485 23.9554 6.82046C24.7013 8.52911 26.0641 9.88518 27.7728 10.631C27.9084 10.692 27.9084 10.8955 27.7728 10.9565C26.0641 11.6955 24.7013 13.0584 23.9554 14.767C23.8944 14.9027 23.691 14.9027 23.63 14.767C22.8841 13.0584 21.5213 11.7023 19.8126 10.9565C19.677 10.8955 19.677 10.692 19.8126 10.631C21.5213 9.89196 22.8841 8.52911 23.63 6.82046Z" fill="#FDC448"/>
<path d="M27.4308 17.2726C27.4308 22.8664 22.8947 27.3956 17.3077 27.3956C11.7207 27.3956 7.19141 22.8664 7.19141 17.2726C7.19141 11.6788 11.7207 7.15625 17.3077 7.15625V10.4447C13.5378 10.4447 10.4799 13.5027 10.4799 17.2726C10.4799 21.0424 13.5378 24.1004 17.3077 24.1004C21.0776 24.1004 24.1355 21.0492 24.1355 17.2726H27.4308Z" fill="white"/>
</g>
<path opacity="0.6" d="M124.879 22.3914V14.1714H127.059V15.4555H127.193C127.368 14.9926 127.656 14.6343 128.059 14.3804C128.463 14.1216 128.933 13.9922 129.47 13.9922C129.844 13.9922 130.182 14.0544 130.486 14.1788C130.789 14.2983 131.048 14.47 131.262 14.694C131.476 14.918 131.641 15.1892 131.755 15.5078H131.889C132.014 15.2042 132.198 14.9404 132.442 14.7164C132.686 14.4874 132.972 14.3107 133.301 14.1863C133.629 14.0569 133.985 13.9922 134.368 13.9922C134.916 13.9922 135.386 14.1042 135.779 14.3282C136.177 14.5521 136.484 14.8707 136.698 15.2838C136.917 15.6919 137.026 16.1797 137.026 16.7471V22.3914H134.846V17.2922C134.846 16.9587 134.796 16.6824 134.697 16.4634C134.597 16.2444 134.445 16.0802 134.241 15.9707C134.042 15.8562 133.791 15.799 133.487 15.799C133.194 15.799 132.937 15.8661 132.718 16.0005C132.504 16.1349 132.337 16.3166 132.218 16.5456C132.099 16.7745 132.039 17.0383 132.039 17.3369V22.3914H129.859V17.1951C129.859 16.9014 129.804 16.6501 129.694 16.441C129.59 16.232 129.436 16.0727 129.232 15.9632C129.032 15.8537 128.791 15.799 128.507 15.799C128.224 15.799 127.972 15.8711 127.753 16.0155C127.539 16.1548 127.37 16.3489 127.246 16.5978C127.121 16.8417 127.059 17.1204 127.059 17.434V22.3914H124.879Z" fill="#FAFAFA"/>
<path opacity="0.6" d="M118.36 22.5183C117.842 22.5183 117.379 22.4188 116.971 22.2197C116.568 22.0156 116.252 21.7294 116.023 21.3611C115.794 20.9878 115.68 20.5523 115.68 20.0546V20.0396C115.68 19.5469 115.802 19.1238 116.046 18.7704C116.294 18.417 116.655 18.1408 117.128 17.9417C117.606 17.7376 118.186 17.6157 118.868 17.5759L121.929 17.3892V18.7182L119.196 18.8973C118.728 18.9222 118.38 19.0218 118.151 19.196C117.922 19.3702 117.807 19.6066 117.807 19.9052V19.9202C117.807 20.2337 117.927 20.4801 118.166 20.6593C118.405 20.8385 118.713 20.9281 119.092 20.9281C119.43 20.9281 119.731 20.8609 119.995 20.7265C120.259 20.5921 120.468 20.4104 120.622 20.1815C120.776 19.9476 120.854 19.6862 120.854 19.3976V16.777C120.854 16.4186 120.734 16.1449 120.495 15.9557C120.261 15.7616 119.92 15.6646 119.472 15.6646C119.079 15.6646 118.758 15.7318 118.509 15.8661C118.265 15.9956 118.101 16.1822 118.017 16.4261L118.002 16.456H115.986L115.993 16.3888C116.053 15.906 116.235 15.4854 116.538 15.127C116.847 14.7686 117.26 14.4899 117.778 14.2908C118.3 14.0917 118.905 13.9922 119.592 13.9922C120.319 13.9922 120.936 14.1042 121.443 14.3282C121.951 14.5472 122.337 14.8657 122.601 15.2838C122.869 15.6969 123.004 16.1947 123.004 16.777V22.3914H120.854V21.3014H120.719C120.58 21.5552 120.393 21.7742 120.159 21.9584C119.93 22.1376 119.662 22.2769 119.353 22.3765C119.049 22.4711 118.718 22.5183 118.36 22.5183Z" fill="#FAFAFA"/>
<path opacity="0.6" d="M110.798 22.5631C109.967 22.5631 109.25 22.3914 108.648 22.048C108.05 21.6996 107.59 21.2068 107.267 20.5697C106.943 19.9326 106.781 19.1736 106.781 18.2926V18.2851C106.781 17.4141 106.941 16.6575 107.259 16.0155C107.583 15.3734 108.038 14.8757 108.625 14.5223C109.218 14.1689 109.912 13.9922 110.708 13.9922C111.51 13.9922 112.202 14.1639 112.784 14.5073C113.366 14.8508 113.814 15.3311 114.128 15.9483C114.441 16.5655 114.598 17.2897 114.598 18.1209V18.8003H107.871V17.434H113.553L112.53 18.7256V17.8521C112.53 17.3593 112.453 16.9487 112.299 16.6202C112.149 16.2917 111.94 16.0453 111.671 15.8811C111.408 15.7119 111.099 15.6272 110.746 15.6272C110.397 15.6272 110.086 15.7143 109.812 15.8885C109.544 16.0578 109.33 16.3091 109.17 16.6426C109.016 16.9711 108.939 17.3743 108.939 17.8521V18.7331C108.939 19.196 109.016 19.5917 109.17 19.9202C109.325 20.2487 109.544 20.5 109.827 20.6742C110.111 20.8484 110.45 20.9356 110.843 20.9356C111.161 20.9356 111.433 20.8883 111.657 20.7937C111.881 20.6991 112.06 20.5896 112.194 20.4652C112.333 20.3358 112.428 20.2188 112.478 20.1143L112.5 20.0695H114.531L114.516 20.1442C114.451 20.403 114.334 20.6742 114.165 20.9579C113.996 21.2367 113.762 21.498 113.463 21.7419C113.17 21.9858 112.801 22.1849 112.358 22.3392C111.92 22.4885 111.4 22.5631 110.798 22.5631Z" fill="#FAFAFA"/>
<path opacity="0.6" d="M104.6 22.4244C103.604 22.4244 102.888 22.2502 102.45 21.9018C102.012 21.5484 101.793 20.9735 101.793 20.1771V15.817H100.523V14.1745H101.793V12.2109H103.995V14.1745H105.69V15.817H103.995V19.6769C103.995 20.0452 104.077 20.3165 104.241 20.4907C104.411 20.6599 104.68 20.7446 105.048 20.7446C105.187 20.7446 105.302 20.7421 105.391 20.7371C105.486 20.7271 105.585 20.7172 105.69 20.7072V22.3273C105.556 22.3522 105.394 22.3746 105.205 22.3945C105.015 22.4144 104.814 22.4244 104.6 22.4244Z" fill="#FAFAFA"/>
<path opacity="0.6" d="M96.3407 22.5214C95.9525 22.5214 95.5991 22.4666 95.2806 22.3571C94.962 22.2427 94.6833 22.0809 94.4444 21.8719C94.2104 21.6628 94.0213 21.4115 93.877 21.1178H93.7426V22.3945H91.5625V11.0312H93.7426V15.4884H93.877C94.0163 15.1848 94.2055 14.926 94.4444 14.712C94.6883 14.498 94.9695 14.3337 95.288 14.2192C95.6116 14.0998 95.9625 14.04 96.3407 14.04C97.0326 14.04 97.6274 14.2093 98.1251 14.5477C98.6228 14.8862 99.0061 15.3715 99.2749 16.0036C99.5436 16.6357 99.678 17.3923 99.678 18.2733V18.2882C99.678 19.1642 99.5411 19.9183 99.2674 20.5504C98.9986 21.1825 98.6154 21.6703 98.1176 22.0137C97.6199 22.3522 97.0276 22.5214 96.3407 22.5214ZM95.5941 20.7146C95.9824 20.7146 96.3134 20.6176 96.5871 20.4235C96.8658 20.2293 97.0799 19.9506 97.2292 19.5873C97.3835 19.2239 97.4606 18.7909 97.4606 18.2882V18.2733C97.4606 17.7705 97.3835 17.34 97.2292 16.9816C97.0799 16.6183 96.8658 16.3396 96.5871 16.1454C96.3134 15.9464 95.9824 15.8468 95.5941 15.8468C95.2159 15.8468 94.8849 15.9464 94.6012 16.1454C94.3224 16.3396 94.1059 16.6183 93.9516 16.9816C93.7973 17.34 93.7202 17.773 93.7202 18.2807V18.2957C93.7202 18.7934 93.7948 19.2239 93.9441 19.5873C94.0984 19.9506 94.315 20.2293 94.5937 20.4235C94.8774 20.6176 95.2109 20.7146 95.5941 20.7146Z" fill="#FAFAFA"/>
<path opacity="0.6" d="M84.9654 22.5183C84.4478 22.5183 83.9849 22.4188 83.5768 22.2197C83.1736 22.0156 82.8576 21.7294 82.6286 21.3611C82.3996 20.9878 82.2852 20.5523 82.2852 20.0546V20.0396C82.2852 19.5469 82.4071 19.1238 82.651 18.7704C82.8999 18.417 83.2607 18.1408 83.7336 17.9417C84.2114 17.7376 84.7912 17.6157 85.4731 17.5759L88.5342 17.3892V18.7182L85.8016 18.8973C85.3338 18.9222 84.9854 19.0218 84.7564 19.196C84.5274 19.3702 84.413 19.6066 84.413 19.9052V19.9202C84.413 20.2337 84.5324 20.4801 84.7713 20.6593C85.0102 20.8385 85.3188 20.9281 85.6971 20.9281C86.0356 20.9281 86.3367 20.8609 86.6005 20.7265C86.8643 20.5921 87.0733 20.4104 87.2276 20.1815C87.3819 19.9476 87.4591 19.6862 87.4591 19.3976V16.777C87.4591 16.4186 87.3396 16.1449 87.1007 15.9557C86.8668 15.7616 86.5258 15.6646 86.0779 15.6646C85.6847 15.6646 85.3636 15.7318 85.1148 15.8661C84.8709 15.9956 84.7066 16.1822 84.622 16.4261L84.6071 16.456H82.5913L82.5987 16.3888C82.6585 15.906 82.8401 15.4854 83.1437 15.127C83.4523 14.7686 83.8655 14.4899 84.3831 14.2908C84.9057 14.0917 85.5105 13.9922 86.1973 13.9922C86.924 13.9922 87.5412 14.1042 88.0489 14.3282C88.5566 14.5472 88.9423 14.8657 89.2061 15.2838C89.4749 15.6969 89.6093 16.1947 89.6093 16.777V22.3914H87.4591V21.3014H87.3247C87.1853 21.5552 86.9987 21.7742 86.7647 21.9584C86.5358 22.1376 86.267 22.2769 85.9584 22.3765C85.6548 22.4711 85.3238 22.5183 84.9654 22.5183Z" fill="#FAFAFA"/>
<path opacity="0.6" d="M78.5508 22.3945V11.0312H80.7309V22.3945H78.5508Z" fill="#FAFAFA"/>
<path opacity="0.6" d="M72.9056 22.5631C72.0644 22.5631 71.3402 22.3939 70.733 22.0554C70.1258 21.712 69.6604 21.2217 69.3369 20.5847C69.0133 19.9426 68.8516 19.1761 68.8516 18.2851V18.2702C68.8516 17.3842 69.0158 16.6227 69.3443 15.9856C69.6728 15.3485 70.1382 14.8582 70.7405 14.5148C71.3477 14.1664 72.0694 13.9922 72.9056 13.9922C73.7418 13.9922 74.461 14.1639 75.0633 14.5073C75.6705 14.8508 76.1384 15.3435 76.4669 15.9856C76.7954 16.6227 76.9596 17.3842 76.9596 18.2702V18.2851C76.9596 19.1761 76.7979 19.9426 76.4743 20.5847C76.1508 21.2217 75.6854 21.712 75.0782 22.0554C74.4759 22.3939 73.7517 22.5631 72.9056 22.5631ZM72.9056 20.8534C73.2938 20.8534 73.6223 20.7514 73.8911 20.5473C74.1599 20.3432 74.3664 20.0496 74.5108 19.6663C74.6551 19.2831 74.7273 18.8227 74.7273 18.2851V18.2702C74.7273 17.7326 74.6551 17.2747 74.5108 16.8965C74.3664 16.5132 74.1574 16.2195 73.8836 16.0155C73.6149 15.8064 73.2888 15.7019 72.9056 15.7019C72.5223 15.7019 72.1938 15.8064 71.9201 16.0155C71.6513 16.2195 71.4447 16.5132 71.3004 16.8965C71.1561 17.2747 71.0839 17.7326 71.0839 18.2702V18.2851C71.0839 18.8277 71.1536 19.2905 71.2929 19.6738C71.4373 20.0571 71.6438 20.3507 71.9126 20.5548C72.1864 20.7539 72.5174 20.8534 72.9056 20.8534Z" fill="#FAFAFA"/>
<path opacity="0.6" d="M65.082 22.3945V11.0312H67.2621V22.3945H65.082Z" fill="#FAFAFA"/>
<path opacity="0.6" d="M58.4889 22.5183C57.9712 22.5183 57.5083 22.4188 57.1002 22.2197C56.697 22.0156 56.381 21.7294 56.152 21.3611C55.9231 20.9878 55.8086 20.5523 55.8086 20.0546V20.0396C55.8086 19.5469 55.9305 19.1238 56.1744 18.7704C56.4233 18.417 56.7841 18.1408 57.257 17.9417C57.7348 17.7376 58.3147 17.6157 58.9966 17.5759L62.0576 17.3892V18.7182L59.3251 18.8973C58.8572 18.9222 58.5088 19.0218 58.2798 19.196C58.0509 19.3702 57.9364 19.6066 57.9364 19.9052V19.9202C57.9364 20.2337 58.0559 20.4801 58.2948 20.6593C58.5337 20.8385 58.8423 20.9281 59.2205 20.9281C59.559 20.9281 59.8601 20.8609 60.1239 20.7265C60.3877 20.5921 60.5968 20.4104 60.7511 20.1815C60.9054 19.9476 60.9825 19.6862 60.9825 19.3976V16.777C60.9825 16.4186 60.8631 16.1449 60.6242 15.9557C60.3902 15.7616 60.0493 15.6646 59.6013 15.6646C59.2081 15.6646 58.8871 15.7318 58.6382 15.8661C58.3943 15.9956 58.2301 16.1822 58.1454 16.4261L58.1305 16.456H56.1147L56.1222 16.3888C56.1819 15.906 56.3636 15.4854 56.6672 15.127C56.9758 14.7686 57.3889 14.4899 57.9065 14.2908C58.4292 14.0917 59.0339 13.9922 59.7208 13.9922C60.4475 13.9922 61.0646 14.1042 61.5723 14.3282C62.08 14.5472 62.4658 14.8657 62.7296 15.2838C62.9983 15.6969 63.1327 16.1947 63.1327 16.777V22.3914H60.9825V21.3014H60.8481C60.7088 21.5552 60.5221 21.7742 60.2882 21.9584C60.0592 22.1376 59.7905 22.2769 59.4819 22.3765C59.1782 22.4711 58.8472 22.5183 58.4889 22.5183Z" fill="#FAFAFA"/>
<path opacity="0.6" d="M46.9062 22.3945V11.0312H49.0863V15.4436H49.2207C49.4098 14.9957 49.7035 14.6423 50.1017 14.3835C50.4999 14.1247 50.9926 13.9952 51.58 13.9952C52.1922 13.9952 52.7048 14.1172 53.1179 14.3611C53.536 14.6 53.8521 14.9484 54.0661 15.4063C54.2851 15.8642 54.3946 16.4217 54.3946 17.0787V22.3945H52.2146V17.5715C52.2146 16.9891 52.0926 16.5486 51.8487 16.25C51.6048 15.9513 51.2241 15.802 50.7064 15.802C50.373 15.802 50.0843 15.8792 49.8404 16.0335C49.6015 16.1828 49.4148 16.3943 49.2804 16.6681C49.151 16.9418 49.0863 17.2653 49.0863 17.6386V22.3945H46.9062Z" fill="#FAFAFA"/>
<path opacity="0.4" d="M155.82 22.3979V11.1094H157.44V15.5143H157.567C157.766 15.0813 158.06 14.7428 158.448 14.4989C158.837 14.255 159.327 14.1331 159.919 14.1331C160.521 14.1331 161.032 14.2501 161.45 14.484C161.868 14.7179 162.186 15.0614 162.405 15.5143C162.624 15.9623 162.734 16.5073 162.734 17.1494V22.3979H161.106V17.5301C161.106 16.8532 160.964 16.3505 160.681 16.022C160.402 15.6885 159.964 15.5218 159.367 15.5218C158.973 15.5218 158.632 15.6089 158.344 15.7831C158.055 15.9523 157.831 16.1962 157.672 16.5147C157.518 16.8283 157.44 17.2041 157.44 17.6421V22.3979H155.82Z" fill="#FAFAFA" fill-opacity="0.75"/>
<path opacity="0.4" d="M151.271 22.3984V13.3496H151.152L148.441 15.2833V13.6408L151.278 11.625H152.951V22.3984H151.271Z" fill="#FAFAFA" fill-opacity="0.75"/>
<defs>
<clipPath id="clip0_37289_34258">
<rect width="20.6801" height="20.6801" fill="white" transform="translate(7.19141 6.72656)"/>
</clipPath>
</defs>
</svg>
