<svg width="16" height="16" viewBox="0 0 16 16" fill="none" xmlns="http://www.w3.org/2000/svg">
<g clip-path="url(#clip0_27246_28669)">
<path d="M3.61383 15.9741C3.44419 15.9741 3.25033 15.9235 3.10493 15.7969C2.81414 15.569 2.69297 15.2146 2.76567 14.8602L3.71076 10.4047C3.73499 10.2528 3.68652 10.1262 3.58959 10.0249L0.293906 6.98708C0.0273425 6.73393 -0.0695895 6.35419 0.0515755 6.02509C0.17274 5.67068 0.439303 5.41752 0.802798 5.39221L5.14051 4.96184C5.2859 4.93653 5.40707 4.86058 5.45553 4.734L7.20031 0.556942C7.34571 0.22784 7.66074 0 8 0C8.36349 0 8.67852 0.202524 8.79969 0.556942L10.5445 4.734C10.5929 4.86058 10.7141 4.96184 10.8595 4.96184L15.1972 5.39221C15.5607 5.41752 15.8515 5.67068 15.9484 6.02509C16.0696 6.37951 15.9727 6.75924 15.7061 7.0124L12.4346 10.0503C12.3377 10.1515 12.2892 10.3034 12.3135 10.43L13.2586 14.8855C13.3313 15.2399 13.2101 15.6197 12.9193 15.8222C12.6285 16.05 12.265 16.05 11.95 15.8728L8.19386 13.5691C8.0727 13.4932 7.9273 13.4932 7.80614 13.5691L4.05002 15.8475C3.90462 15.9235 3.75922 15.9741 3.61383 15.9741Z" fill="#FDC448"/>
</g>
<defs>
<clipPath id="clip0_27246_28669">
<rect width="16" height="16" fill="white"/>
</clipPath>
</defs>
</svg>
